<svg width="50" height="50" viewBox="0 0 50 50" fill="none" xmlns="http://www.w3.org/2000/svg">
<rect width="50" height="50" rx="15" fill="url(#paint0_linear_4_7)"/>
<path fill-rule="evenodd" clip-rule="evenodd" d="M27.6291 13.8281C25.4987 12.988 22.8218 12.8862 20.3191 14.1376C17.8401 15.3772 16.225 17.5498 15.2166 20.5692C14.1969 23.6225 13.8332 27.4477 13.8332 31.7915C13.8332 32.7756 14.3399 33.8817 15.229 34.7707C16.118 35.6599 17.2241 36.1667 18.2082 36.1667C22.4125 36.1667 26.2366 35.813 29.3258 34.7958C32.3883 33.7877 34.6191 32.1679 35.8625 29.6812C37.12 27.166 37.0486 24.4768 36.2287 22.3507C35.866 21.41 35.3829 20.6339 34.8449 20.0375L35.6802 24.214C35.8382 25.0037 35.326 25.7721 34.5362 25.93C33.7465 26.088 32.9781 25.5758 32.8201 24.786L32.2615 21.9925L31.2078 24.3631C30.8807 25.0991 30.0188 25.4306 29.283 25.1035C28.5469 24.7763 28.2155 23.9145 28.5426 23.1786L29.9192 20.081L26.8216 21.4576C26.0856 21.7847 25.2238 21.4533 24.8967 20.7173C24.5696 19.9812 24.9011 19.1194 25.6371 18.7923L28.0078 17.7388L25.2142 17.18C24.4244 17.022 23.9122 16.2537 24.0701 15.464C24.2281 14.6742 24.9965 14.162 25.7862 14.32L29.8428 15.1314C29.2592 14.6322 28.5172 14.1783 27.6291 13.8281ZM35.3785 16.684C36.9726 17.7027 38.2192 19.4062 38.95 21.3013C40.036 24.1176 40.1303 27.6673 38.4712 30.9855C36.7786 34.3706 33.7907 36.3966 30.238 37.5662C26.7122 38.7271 22.525 39.0833 18.2082 39.0833C16.2755 39.0833 14.465 38.1316 13.1666 36.8333C11.8681 35.5348 10.9165 33.7242 10.9165 31.7915C10.9165 27.3381 11.2821 23.1427 12.4501 19.6453C13.6294 16.1142 15.6603 13.2062 19.0146 11.5289C22.3452 9.86353 25.8938 10.0085 28.6992 11.1147C30.574 11.8541 32.2655 13.0932 33.2894 14.6482L34.6769 13.2606C35.2464 12.6911 36.1698 12.691 36.7393 13.2605C37.3089 13.83 37.3089 14.7534 36.7394 15.3229L35.3785 16.684ZM26.9585 31.7917C26.9585 32.5971 26.3056 33.25 25.5002 33.25C24.6948 33.25 24.0419 32.5971 24.0419 31.7917C24.0419 30.9862 24.6948 30.3333 25.5002 30.3333C26.3056 30.3333 26.9585 30.9862 26.9585 31.7917ZM32.7919 30.3333C33.5973 30.3333 34.2502 29.6804 34.2502 28.875C34.2502 28.0696 33.5973 27.4167 32.7919 27.4167C31.9864 27.4167 31.3335 28.0696 31.3335 28.875C31.3335 29.6804 31.9864 30.3333 32.7919 30.3333ZM25.5002 25.9583C25.5002 26.7638 24.8473 27.4167 24.0419 27.4167C23.2364 27.4167 22.5835 26.7638 22.5835 25.9583C22.5835 25.1529 23.2364 24.5 24.0419 24.5C24.8473 24.5 25.5002 25.1529 25.5002 25.9583ZM18.2085 25.9583C19.0139 25.9583 19.6669 25.3054 19.6669 24.5C19.6669 23.6946 19.0139 23.0417 18.2085 23.0417C17.4031 23.0417 16.7502 23.6946 16.7502 24.5C16.7502 25.3054 17.4031 25.9583 18.2085 25.9583ZM19.6669 31.7917C19.6669 32.5971 19.0139 33.25 18.2085 33.25C17.4031 33.25 16.7502 32.5971 16.7502 31.7917C16.7502 30.9862 17.4031 30.3333 18.2085 30.3333C19.0139 30.3333 19.6669 30.9862 19.6669 31.7917ZM21.1252 18.6666C21.9306 18.6666 22.5835 18.0137 22.5835 17.2083C22.5835 16.4029 21.9306 15.75 21.1252 15.75C20.3198 15.75 19.6669 16.4029 19.6669 17.2083C19.6669 18.0137 20.3198 18.6666 21.1252 18.6666Z" fill="white"/>
<defs>
<linearGradient id="paint0_linear_4_7" x1="3.99724e-06" y1="5" x2="50" y2="50" gradientUnits="userSpaceOnUse">
<stop stop-color="#FE9A00"/>
<stop offset="0.807692" stop-color="#FFDF20"/>
</linearGradient>
</defs>
</svg>
